<svg width="110" height="23" viewBox="0 0 110 23" fill="none" xmlns="http://www.w3.org/2000/svg">
<path d="M0.225 23V0.459998H18.25V6.55H8.695V8.58H16.92V14.88H8.695V23H0.225ZM21.2182 23V0.459998H29.6882V23H21.2182ZM41.8515 23L33.1715 0.459998H41.9915L46.2265 12.99L50.4965 0.459998H59.3165L50.6365 23H41.8515ZM62.8285 23V0.459998H80.8535V6.55H71.2985V8.58H79.5235V14.88H71.2985V16.91H80.8535V23H62.8285ZM82.4039 23L90.9439 11.485L82.8239 0.459998H92.9389L96.0189 4.625L99.1339 0.459998H109.249L101.129 11.485L109.669 23H99.4139L96.0189 18.415L92.6589 23H82.4039Z" fill="black"/>
</svg>
