<svg width="72" height="18" viewBox="0 0 72 18" fill="none" xmlns="http://www.w3.org/2000/svg">
<path d="M0.875 17V0.899999H13.75V5.25H6.925V6.7H12.8V11.2H6.925V17H0.875ZM16.3539 4.175V-1.78814e-07H22.8289V4.175H16.3539ZM16.7789 17V9.5H15.1289L15.6289 5.15H22.8289V17H16.7789ZM29.5477 17L24.8477 5.15H31.1477L32.6727 10.6L34.2227 5.15H40.5227L35.8227 17H29.5477ZM48.5361 17.25C47.1361 17.25 45.8778 17.0167 44.7611 16.55C43.6611 16.0833 42.7861 15.4 42.1361 14.5C41.4861 13.5833 41.1611 12.4583 41.1611 11.125C41.1611 9.24167 41.7195 7.73333 42.8361 6.6C43.9695 5.46667 45.6528 4.9 47.8861 4.9C49.9195 4.9 51.5445 5.4 52.7611 6.4C53.9778 7.4 54.5861 8.825 54.5861 10.675V12.7H46.6861C46.9361 13.0167 47.3445 13.2667 47.9111 13.45C48.4945 13.6167 49.2445 13.7 50.1611 13.7C50.9111 13.7 51.6361 13.6417 52.3361 13.525C53.0361 13.3917 53.5861 13.25 53.9861 13.1V16.35C52.7361 16.95 50.9195 17.25 48.5361 17.25ZM46.6861 9.675H49.4111V9.45C49.4111 9.21667 49.3195 9 49.1361 8.8C48.9528 8.58333 48.6028 8.475 48.0861 8.475C47.5861 8.475 47.2278 8.59167 47.0111 8.825C46.7945 9.05833 46.6861 9.34167 46.6861 9.675ZM55.3477 17L59.9727 10.975L55.5477 5.15H62.0727L63.2477 6.7L64.4227 5.15H70.9477L66.5227 10.975L71.1477 17H64.5477L63.2477 15.3L61.9477 17H55.3477Z" fill="black"/>
</svg>
