<svg width="164" height="28" viewBox="0 0 164 28" fill="none" xmlns="http://www.w3.org/2000/svg">
<path d="M14 0L17.1432 9.67376H27.3148L19.0858 15.6525L22.229 25.3262L14 19.3475L5.77101 25.3262L8.9142 15.6525L0.685208 9.67376H10.8568L14 0Z" fill="#FFEB01"/>
<path d="M48 0L51.1432 9.67376H61.3148L53.0858 15.6525L56.229 25.3262L48 19.3475L39.771 25.3262L42.9142 15.6525L34.6852 9.67376H44.8568L48 0Z" fill="#FFEB01"/>
<path d="M82 0L85.1432 9.67376H95.3148L87.0858 15.6525L90.229 25.3262L82 19.3475L73.771 25.3262L76.9142 15.6525L68.6852 9.67376H78.8568L82 0Z" fill="#FFEB01"/>
<path d="M116 0L119.143 9.67376H129.315L121.086 15.6525L124.229 25.3262L116 19.3475L107.771 25.3262L110.914 15.6525L102.685 9.67376H112.857L116 0Z" fill="#FFEB01"/>
<path d="M150 0L153.143 9.67376H163.315L155.086 15.6525L158.229 25.3262L150 19.3475L141.771 25.3262L144.914 15.6525L136.685 9.67376H146.857L150 0Z" fill="#FFEB01"/>
</svg>
